<svg width="542" height="379" viewBox="0 0 542 379" fill="none" xmlns="http://www.w3.org/2000/svg">
<path d="M524.8 378.379H17.0259C12.5104 378.379 8.17976 376.582 4.98678 373.382C1.7938 370.182 0 365.842 0 361.317C184.068 339.879 364.676 339.879 541.826 361.317C541.826 365.842 540.032 370.182 536.839 373.382C533.646 376.582 529.315 378.379 524.8 378.379Z" fill="#2F2E41"/>
<path d="M541.826 362.32L0 361.317L62.7957 255.431L63.0962 254.929V21.5686C63.0959 18.7361 63.6525 15.9313 64.734 13.3144C65.8155 10.6974 67.4009 8.31964 69.3995 6.31676C71.3981 4.31389 73.7709 2.72516 76.3822 1.64132C78.9936 0.557485 81.7924 -0.000236613 84.6189 7.53034e-08H454.202C457.029 -0.000233913 459.827 0.557494 462.439 1.64133C465.05 2.72518 467.423 4.3139 469.422 6.31677C471.42 8.31965 473.005 10.6974 474.087 13.3144C475.169 15.9313 475.725 18.7361 475.725 21.5686V256.535L541.826 362.32Z" fill="#3F3D56"/>
<path d="M84.1281 15.0547C82.2694 15.0568 80.4874 15.7976 79.1731 17.1147C77.8588 18.4319 77.1195 20.2176 77.1174 22.0803V234.856C77.1196 236.718 77.8589 238.504 79.1732 239.821C80.4875 241.138 82.2694 241.879 84.1281 241.881H457.697C459.556 241.879 461.338 241.138 462.652 239.821C463.966 238.504 464.706 236.718 464.708 234.856V22.0803C464.706 20.2177 463.967 18.4319 462.652 17.1148C461.338 15.7978 459.556 15.0569 457.697 15.0547H84.1281Z" fill="white"/>
<path d="M86.5834 269.984C86.0091 269.985 85.4469 270.151 84.9633 270.461C84.4797 270.772 84.0947 271.214 83.8537 271.737L64.5044 313.89C64.2937 314.349 64.2016 314.854 64.2364 315.357C64.2713 315.861 64.432 316.348 64.7038 316.773C64.9757 317.198 65.3498 317.548 65.7919 317.791C66.234 318.033 66.7297 318.16 67.2336 318.16H474.139C474.651 318.16 475.155 318.029 475.602 317.779C476.05 317.529 476.426 317.168 476.695 316.732C476.964 316.295 477.118 315.797 477.14 315.284C477.163 314.771 477.055 314.261 476.826 313.802L455.794 271.649C455.546 271.148 455.163 270.726 454.688 270.432C454.213 270.138 453.665 269.983 453.107 269.984L86.5834 269.984Z" fill="#2F2E41"/>
<path d="M229.415 326.189C228.754 326.19 228.113 326.409 227.588 326.811C227.064 327.214 226.687 327.778 226.514 328.417L221.661 346.483C221.541 346.929 221.525 347.397 221.614 347.851C221.704 348.304 221.896 348.731 222.177 349.098C222.457 349.464 222.818 349.762 223.232 349.966C223.645 350.171 224.1 350.277 224.561 350.277H316.866C317.345 350.277 317.817 350.162 318.242 349.942C318.668 349.722 319.035 349.404 319.313 349.013C319.591 348.622 319.771 348.17 319.839 347.694C319.907 347.219 319.861 346.735 319.704 346.281L313.464 328.215C313.259 327.624 312.876 327.111 312.367 326.748C311.858 326.385 311.249 326.19 310.625 326.189L229.415 326.189Z" fill="#2F2E41"/>
<path d="M475.725 251.416V255.431H62.7954L63.1065 254.929V251.416H475.725Z" fill="#2F2E41"/>
<path d="M347.346 52.6482H249.919V54.4315H347.346C352.143 54.4315 356.743 56.341 360.135 59.7399C363.527 63.1389 365.432 67.7488 365.432 72.5557C365.432 77.3625 363.527 81.9724 360.135 85.3714C356.743 88.7703 352.143 90.6798 347.346 90.6798H199.923C195.126 90.6798 190.526 88.7703 187.134 85.3714C183.742 81.9724 181.837 77.3625 181.837 72.5557C181.837 67.7488 183.742 63.1389 187.134 59.7399C190.526 56.341 195.126 54.4315 199.923 54.4315H205.432V52.6482H199.923C194.656 52.6513 189.606 54.75 185.883 58.4831C182.16 62.2161 180.069 67.2779 180.069 72.5557C180.069 77.8334 182.16 82.8952 185.883 86.6282C189.606 90.3612 194.656 92.46 199.923 92.4631H347.346C349.956 92.4646 352.54 91.9508 354.952 90.9511C357.363 89.9513 359.555 88.4852 361.401 86.6365C363.247 84.7877 364.711 82.5927 365.71 80.1766C366.709 77.7606 367.223 75.1709 367.223 72.5557C367.223 69.9404 366.709 67.3507 365.71 64.9347C364.711 62.5187 363.247 60.3236 361.401 58.4748C359.555 56.6261 357.363 55.16 354.952 54.1602C352.54 53.1604 349.956 52.6467 347.346 52.6482V52.6482Z" fill="#E6E6E6"/>
<path d="M347.346 114.172H249.919V115.955H347.346C352.141 115.958 356.738 117.869 360.128 121.268C363.517 124.666 365.421 129.274 365.421 134.079C365.421 138.884 363.517 143.493 360.128 146.891C356.738 150.29 352.141 152.201 347.346 152.204H199.923C195.126 152.204 190.526 150.294 187.134 146.895C183.742 143.496 181.837 138.886 181.837 134.079C181.837 129.273 183.742 124.663 187.134 121.264C190.526 117.865 195.126 115.955 199.923 115.955H205.432V114.172H199.923C194.656 114.175 189.606 116.274 185.883 120.007C182.16 123.74 180.069 128.802 180.069 134.079C180.069 139.357 182.16 144.419 185.883 148.152C189.606 151.885 194.656 153.984 199.923 153.987H347.346C349.956 153.988 352.54 153.475 354.952 152.475C357.363 151.475 359.555 150.009 361.401 148.16C363.247 146.311 364.711 144.116 365.71 141.7C366.709 139.284 367.223 136.695 367.223 134.079C367.223 131.464 366.709 128.874 365.71 126.458C364.711 124.042 363.247 121.847 361.401 119.999C359.555 118.15 357.363 116.684 354.952 115.684C352.54 114.684 349.956 114.17 347.346 114.172V114.172Z" fill="#E6E6E6"/>
<path d="M347.346 175.695H249.919V177.478H347.346C352.143 177.478 356.743 179.388 360.135 182.787C363.526 186.186 365.432 190.795 365.432 195.602C365.432 200.409 363.526 205.019 360.135 208.418C356.743 211.817 352.143 213.726 347.346 213.726H199.923C195.126 213.726 190.526 211.817 187.134 208.418C183.742 205.019 181.837 200.409 181.837 195.602C181.837 190.795 183.742 186.186 187.134 182.787C190.526 179.388 195.126 177.478 199.923 177.478H205.432V175.695H199.923C194.654 175.695 189.601 177.792 185.876 181.526C182.15 185.259 180.057 190.323 180.057 195.602C180.057 200.882 182.15 205.946 185.876 209.679C189.601 213.412 194.654 215.51 199.923 215.51H347.346C349.955 215.51 352.538 214.995 354.948 213.994C357.359 212.994 359.548 211.528 361.393 209.679C363.238 207.83 364.701 205.636 365.699 203.221C366.698 200.805 367.211 198.217 367.211 195.602C367.211 192.988 366.698 190.399 365.699 187.984C364.701 185.569 363.238 183.374 361.393 181.526C359.548 179.677 357.359 178.211 354.948 177.21C352.538 176.21 349.955 175.695 347.346 175.695V175.695Z" fill="#E6E6E6"/>
<path d="M216.429 47.9365C215.04 47.9591 213.717 48.5276 212.743 49.5194C211.769 50.5113 211.223 51.8469 211.223 53.2383C211.223 54.6297 211.769 55.9653 212.743 56.9571C213.717 57.9489 215.04 58.5175 216.429 58.54H239.638C240.333 58.5515 241.023 58.4257 241.67 58.1698C242.316 57.9139 242.906 57.533 243.405 57.0487C243.904 56.5645 244.303 55.9865 244.58 55.3476C244.856 54.7087 245.004 54.0216 245.016 53.3253C245.027 52.6291 244.902 51.9374 244.646 51.2898C244.391 50.6422 244.011 50.0513 243.528 49.5509C243.044 49.0505 242.468 48.6504 241.83 48.3734C241.193 48.0964 240.507 47.948 239.812 47.9365C239.754 47.9355 239.696 47.9355 239.638 47.9365H216.429Z" fill="#3F3D56"/>
<path d="M216.429 110.352C215.04 110.375 213.717 110.943 212.743 111.935C211.769 112.927 211.223 114.262 211.223 115.654C211.223 117.045 211.769 118.381 212.743 119.373C213.717 120.364 215.04 120.933 216.429 120.956H239.638C241.042 120.979 242.396 120.442 243.405 119.464C244.413 118.486 244.993 117.147 245.016 115.741C245.039 114.335 244.504 112.977 243.528 111.966C242.552 110.956 241.215 110.375 239.812 110.352C239.754 110.351 239.696 110.351 239.638 110.352H216.429Z" fill="#3F3D56"/>
<path d="M216.429 170.984C215.041 171.007 213.717 171.575 212.743 172.567C211.77 173.559 211.224 174.895 211.224 176.286C211.224 177.677 211.77 179.013 212.743 180.005C213.717 180.996 215.041 181.565 216.429 181.588H239.639C241.042 181.611 242.396 181.074 243.405 180.096C244.413 179.118 244.993 177.779 245.016 176.373C245.039 174.967 244.504 173.609 243.528 172.599C242.552 171.588 241.215 171.007 239.812 170.984C239.754 170.983 239.696 170.983 239.639 170.984H216.429Z" fill="#3F3D56"/>
<path d="M207.223 67.2537C205.835 67.2763 204.511 67.8448 203.537 68.8366C202.563 69.8284 202.018 71.164 202.018 72.5554C202.018 73.9468 202.563 75.2824 203.537 76.2743C204.511 77.2661 205.835 77.8346 207.223 77.8572H339.872C340.567 77.8686 341.257 77.7428 341.903 77.4869C342.55 77.231 343.139 76.8501 343.638 76.3659C344.138 75.8817 344.537 75.3036 344.813 74.6647C345.09 74.0259 345.238 73.3387 345.249 72.6425C345.261 71.9462 345.135 71.2546 344.88 70.6069C344.625 69.9593 344.244 69.3685 343.761 68.8681C343.278 68.3677 342.701 67.9675 342.064 67.6906C341.426 67.4136 340.741 67.2651 340.046 67.2537C339.988 67.2527 339.93 67.2527 339.872 67.2537H207.223Z" fill="#70D1ED"/>
<path d="M207.223 128.778C205.835 128.8 204.511 129.369 203.537 130.361C202.564 131.352 202.018 132.688 202.018 134.079C202.018 135.471 202.564 136.806 203.537 137.798C204.511 138.79 205.835 139.358 207.223 139.381H339.872C340.567 139.393 341.257 139.267 341.903 139.011C342.55 138.755 343.139 138.374 343.639 137.89C344.138 137.406 344.537 136.828 344.814 136.189C345.09 135.55 345.238 134.863 345.25 134.166C345.261 133.47 345.135 132.778 344.88 132.131C344.625 131.483 344.245 130.892 343.761 130.392C343.278 129.892 342.701 129.491 342.064 129.214C341.426 128.937 340.741 128.789 340.046 128.778C339.988 128.777 339.93 128.777 339.872 128.778H207.223Z" fill="#70D1ED"/>
<path d="M207.223 190.302C205.835 190.324 204.511 190.893 203.537 191.885C202.564 192.876 202.018 194.212 202.018 195.603C202.018 196.995 202.564 198.33 203.537 199.322C204.511 200.314 205.835 200.882 207.223 200.905H339.872C340.567 200.916 341.257 200.791 341.903 200.535C342.55 200.279 343.139 199.898 343.639 199.414C344.138 198.929 344.537 198.351 344.814 197.713C345.09 197.074 345.238 196.387 345.25 195.69C345.261 194.994 345.135 194.302 344.88 193.655C344.625 193.007 344.245 192.416 343.761 191.916C343.278 191.416 342.701 191.015 342.064 190.738C341.426 190.461 340.741 190.313 340.046 190.302C339.988 190.301 339.93 190.301 339.872 190.302H207.223Z" fill="#E6E6E6"/>
<path d="M157.955 82.7552C163.807 82.7552 168.55 78.0017 168.55 72.1379C168.55 66.2741 163.807 61.5205 157.955 61.5205C152.104 61.5205 147.361 66.2741 147.361 72.1379C147.361 78.0017 152.104 82.7552 157.955 82.7552Z" fill="#FFB800"/>
<path d="M156.973 76.5L153.886 72.523L155.681 71.1239L157.143 73.0068L162.08 67.7842L163.731 69.3519L156.973 76.5Z" fill="white"/>
<path d="M157.955 144.279C163.807 144.279 168.55 139.526 168.55 133.662C168.55 127.798 163.807 123.044 157.955 123.044C152.104 123.044 147.361 127.798 147.361 133.662C147.361 139.526 152.104 144.279 157.955 144.279Z" fill="#FFB800"/>
<path d="M156.973 138.024L153.886 134.047L155.681 132.648L157.143 134.53L162.08 129.308L163.731 130.876L156.973 138.024Z" fill="white"/>
<path d="M157.955 205.803C163.807 205.803 168.55 201.049 168.55 195.185C168.55 189.322 163.807 184.568 157.955 184.568C152.104 184.568 147.361 189.322 147.361 195.185C147.361 201.049 152.104 205.803 157.955 205.803Z" fill="#E6E6E6"/>
<path d="M390.181 82.7552C396.032 82.7552 400.775 78.0017 400.775 72.1379C400.775 66.2741 396.032 61.5205 390.181 61.5205C384.329 61.5205 379.586 66.2741 379.586 72.1379C379.586 78.0017 384.329 82.7552 390.181 82.7552Z" fill="#E6E6E6"/>
<path d="M390.181 144.279C396.032 144.279 400.775 139.526 400.775 133.662C400.775 127.798 396.032 123.044 390.181 123.044C384.329 123.044 379.586 127.798 379.586 133.662C379.586 139.526 384.329 144.279 390.181 144.279Z" fill="#E6E6E6"/>
<path d="M390.181 205.803C396.032 205.803 400.775 201.049 400.775 195.185C400.775 189.322 396.032 184.568 390.181 184.568C384.329 184.568 379.586 189.322 379.586 195.185C379.586 201.049 384.329 205.803 390.181 205.803Z" fill="#E6E6E6"/>
<path d="M156.973 199.547L153.886 195.57L155.681 194.171L157.143 196.054L162.08 190.832L163.731 192.399L156.973 199.547Z" fill="white"/>
<path d="M387.503 68.7271L386.622 69.6108L392.546 75.5478L393.428 74.6641L387.503 68.7271Z" fill="white"/>
<path d="M392.858 68.7273L386.933 74.6643L387.815 75.548L393.74 69.611L392.858 68.7273Z" fill="white"/>
<path d="M387.503 130.251L386.622 131.135L392.546 137.072L393.428 136.188L387.503 130.251Z" fill="white"/>
<path d="M392.858 130.251L386.933 136.188L387.815 137.072L393.74 131.135L392.858 130.251Z" fill="white"/>
<path d="M387.503 191.775L386.622 192.658L392.546 198.595L393.428 197.712L387.503 191.775Z" fill="white"/>
<path d="M392.858 191.775L386.933 197.712L387.815 198.596L393.74 192.659L392.858 191.775Z" fill="white"/>
<path d="M159.994 190.932C160.917 190.32 161.696 189.515 162.278 188.572C162.86 187.629 163.232 186.571 163.366 185.47C163.501 184.37 163.396 183.253 163.058 182.197C162.72 181.141 162.158 180.171 161.41 179.354L151.239 168.244L141.47 173.201L148.947 188.001C149.435 188.965 150.121 189.816 150.959 190.496C151.798 191.177 152.771 191.672 153.815 191.949C154.858 192.226 155.948 192.278 157.013 192.103C158.078 191.927 159.094 191.528 159.994 190.932V190.932Z" fill="#FFB8B8"/>
<path d="M28.5165 223.928C29.6155 223.8 30.6737 223.434 31.6182 222.857C32.5626 222.279 33.3708 221.503 33.987 220.582C34.6032 219.661 35.0127 218.617 35.1874 217.522C35.3621 216.428 35.2976 215.308 34.9986 214.24L30.9325 199.724H19.9824V216.312C19.9824 217.394 20.2108 218.463 20.6524 219.45C21.0941 220.437 21.7392 221.319 22.5452 222.038C23.3512 222.757 24.2999 223.297 25.3291 223.623C26.3582 223.949 27.4445 224.053 28.5165 223.928V223.928Z" fill="#FFB8B8"/>
<path d="M91.7664 333.438L112.45 330.187L103.934 321.245H91.7664V333.438Z" fill="#FFB8B8"/>
<path d="M25.2549 334.25L46.7495 339.94C42.7906 331.71 40.3527 324.428 41.8828 319.619L31.7438 318.4L25.2549 334.25Z" fill="#FFB8B8"/>
<path d="M29.7158 320.432L42.2886 322.87L76.7611 211.51L91.3611 322.464H104.745L103.528 165.585H51.6162L29.7158 320.432Z" fill="#575A88"/>
<path d="M95.7263 338.372L116.186 331.628C116.729 331.449 117.227 331.155 117.646 330.766C118.065 330.377 118.396 329.902 118.616 329.373C118.835 328.845 118.939 328.275 118.919 327.703C118.899 327.13 118.757 326.569 118.501 326.057V326.057C118.15 325.354 117.6 324.77 116.919 324.379C116.238 323.989 115.457 323.809 114.674 323.862L110.033 324.176L108.214 323.15C108.023 323.042 107.802 322.997 107.584 323.02C107.365 323.043 107.159 323.134 106.994 323.28C106.83 323.426 106.715 323.62 106.665 323.835C106.615 324.049 106.633 324.274 106.717 324.478L108.394 328.56L91.361 327.341L90.5205 334.078C90.4371 334.747 90.5239 335.427 90.7727 336.053C91.0216 336.68 91.4245 337.233 91.944 337.661C92.4635 338.09 93.0827 338.38 93.744 338.504C94.4053 338.628 95.0872 338.583 95.7263 338.372V338.372Z" fill="#575A88"/>
<path d="M26.5761 341.473L48.8162 342.918C49.4062 342.957 49.9976 342.867 50.55 342.656C51.1025 342.445 51.6031 342.117 52.0177 341.694C52.4324 341.272 52.7514 340.765 52.9531 340.208C53.1547 339.651 53.2343 339.057 53.1864 338.466C53.1207 337.655 52.8171 336.882 52.314 336.244C51.8108 335.605 51.1305 335.13 50.3586 334.878L45.7822 333.383L44.4316 331.694C44.2893 331.516 44.0952 331.387 43.8764 331.325C43.6575 331.263 43.4247 331.27 43.2103 331.347C42.996 331.423 42.8107 331.565 42.6803 331.751C42.5499 331.938 42.4808 332.161 42.4826 332.389L42.5194 336.957L26.6376 329.193L23.2338 335.336C22.8958 335.946 22.7172 336.632 22.7146 337.329C22.7121 338.027 22.8856 338.714 23.2192 339.326C23.5527 339.939 24.0354 340.457 24.6223 340.832C25.2092 341.207 25.8813 341.428 26.5761 341.473V341.473Z" fill="#575A88"/>
<path d="M73.922 77.7975C82.2094 77.7975 88.9277 71.0649 88.9277 62.7598C88.9277 54.4548 82.2094 47.7222 73.922 47.7222C65.6345 47.7222 58.9163 54.4548 58.9163 62.7598C58.9163 71.0649 65.6345 77.7975 73.922 77.7975Z" fill="#FFB8B8"/>
<path d="M64.1885 90.3962H84.872V70.4814H64.1885C65.8977 76.6318 65.6768 83.3331 64.1885 90.3962Z" fill="#FFB8B8"/>
<path d="M48.7771 167.617L105.555 168.43L111.233 108.317C111.233 104.395 110.008 100.572 107.728 97.384C105.449 94.1959 102.23 91.8032 98.5247 90.542L89.7386 87.5517L84.8719 81.8618C78.7274 80.5311 72.042 80.8537 64.9995 82.2682L59.7272 89.9903L54.0497 91.8061C50.1914 93.0401 46.838 95.4976 44.4951 98.8081C42.1521 102.119 40.9466 106.103 41.0603 110.16C45.285 132.028 48.5701 152.351 48.7771 167.617Z" fill="#70D1ED"/>
<path d="M17.9546 199.724L32.1492 201.35L48.3716 135.916L49.9938 93.6477L49.5149 93.88C45.7601 95.7007 42.4799 98.3726 39.9343 101.684C37.3886 104.995 35.6474 108.855 34.8486 112.958L17.9546 199.724Z" fill="#70D1ED"/>
<path d="M142.056 175.339L153.006 170.056L120.888 109.997C116.224 101.274 108.641 94.4785 99.4722 90.8032V90.8032L105.556 129.007L142.056 175.339Z" fill="#70D1ED"/>
<path d="M64.6474 76.2942C64.6474 76.2942 79.3618 75.4197 79.6804 72.8692C79.9989 70.3186 82.1473 64.5004 84.6924 64.8196C87.2375 65.1388 94.2911 56.6362 92.7804 53.2086C91.2698 49.781 84.1399 37.1615 69.5837 42.9778C55.0276 48.7941 56.6957 63.3806 58.2064 66.8082C59.717 70.2358 64.6474 76.2942 64.6474 76.2942Z" fill="#2F2E41"/>
<path d="M424.757 260.613C424.596 260.613 424.44 260.667 424.312 260.765C424.184 260.863 424.092 261 424.05 261.156L422.868 265.555C422.839 265.664 422.835 265.778 422.857 265.888C422.879 265.999 422.926 266.102 422.994 266.192C423.062 266.281 423.15 266.353 423.251 266.403C423.352 266.453 423.462 266.479 423.575 266.479H446.052C446.169 266.479 446.284 266.451 446.387 266.398C446.491 266.344 446.58 266.266 446.648 266.171C446.716 266.076 446.76 265.966 446.776 265.85C446.793 265.734 446.782 265.616 446.743 265.506L445.224 261.107C445.174 260.963 445.081 260.838 444.957 260.749C444.833 260.661 444.685 260.613 444.532 260.613H424.757Z" fill="#70D1ED"/>
<path d="M391.937 260.613C391.776 260.613 391.62 260.667 391.492 260.765C391.364 260.863 391.273 261 391.231 261.156L390.049 265.555C390.019 265.664 390.016 265.778 390.037 265.888C390.059 265.999 390.106 266.102 390.174 266.192C390.243 266.281 390.331 266.353 390.431 266.403C390.532 266.453 390.643 266.479 390.755 266.479H413.232C413.349 266.479 413.464 266.451 413.568 266.398C413.671 266.344 413.761 266.266 413.828 266.171C413.896 266.076 413.94 265.966 413.957 265.85C413.973 265.734 413.962 265.616 413.924 265.506L412.404 261.107C412.354 260.963 412.261 260.838 412.137 260.749C412.013 260.661 411.865 260.613 411.713 260.613H391.937Z" fill="#70D1ED"/>
</svg>
