<svg width="409" height="341" viewBox="0 0 409 341" fill="none" xmlns="http://www.w3.org/2000/svg">
<g clip-path="url(#clip0_1_644)">
<g opacity="0.7">
<path opacity="0.7" d="M258.433 153.473C258.469 142.685 255.89 132.049 250.918 122.48C248.557 117.986 246.404 115.192 244.729 113.479C244.097 112.807 243.272 112.351 242.368 112.172C241.465 111.993 240.528 112.102 239.689 112.482C239.019 112.719 238.413 113.111 237.921 113.625C235.68 115.949 233.655 119.022 231.887 122.294C226.656 132.087 223.941 143.03 223.987 154.137V160.805H219.716V83.3225C219.716 67.0823 216.087 51.059 208.978 36.8333C205.61 30.099 202.537 25.915 200.172 23.3425C199.599 22.6886 198.893 22.1647 198.102 21.8057C197.311 21.4468 196.452 21.2611 195.583 21.2611C194.715 21.2611 193.856 21.4468 193.065 21.8057C192.273 22.1647 191.568 22.6886 190.995 23.3425C187.794 26.827 184.907 31.4317 182.383 36.3285C174.907 50.8465 171.11 67.3213 171.11 84.0442V160.805H167.419V153.818C167.465 142.711 164.75 131.768 159.519 121.975C157.751 118.707 155.726 115.635 153.484 113.306C152.839 112.625 151.995 112.168 151.073 111.999C150.152 111.83 149.2 111.959 148.356 112.367L148.511 112.451C147.97 112.691 147.48 113.034 147.07 113.461C145.412 115.174 143.259 117.968 140.881 122.462C135.909 132.032 133.33 142.667 133.366 153.455V269.297H146.539L145.103 278.821V307.294H155.872V278.821L154.435 269.297H167.419V163.802H171.11V268.823H181.631L180.12 278.816V307.294H190.893V278.821L189.381 268.828H203.558L202.047 278.821V307.294H212.82V278.821L211.308 268.828H219.707V163.802H223.978V269.456H227.439V269.297H238.885L237.448 278.821V307.294H248.221V278.821L246.785 269.297H258.433V153.473Z" fill="url(#paint0_linear_1_644)"/>
</g>
<path d="M158.015 273.269H147.817L149.638 260.867H156.194L158.015 273.269Z" fill="#535461"/>
<g opacity="0.1">
<path opacity="0.1" d="M149.13 265.79H156.703L156.194 262.323H149.638L149.13 265.79Z" fill="black"/>
</g>
<path d="M245.441 273.269H235.242L237.064 260.867H243.62L245.441 273.269Z" fill="#535461"/>
<g opacity="0.1">
<path opacity="0.1" d="M236.555 265.79H244.128L243.62 262.323H237.064L236.555 265.79Z" fill="black"/>
</g>
<path d="M191.167 273.269H180.964L182.785 260.867H189.345L191.167 273.269Z" fill="#535461"/>
<g opacity="0.1">
<path opacity="0.1" d="M182.277 265.79H189.854L189.346 262.323H182.785L182.277 265.79Z" fill="black"/>
</g>
<path d="M211.927 273.269H201.728L203.55 260.867H210.106L211.927 273.269Z" fill="#535461"/>
<g opacity="0.1">
<path opacity="0.1" d="M203.041 265.79H210.618L210.106 262.323H203.55L203.041 265.79Z" fill="black"/>
</g>
<path d="M230.87 158.347H158.016V161.265H230.87V158.347Z" fill="#535461"/>
<path d="M242.134 112.242C241.749 111.817 241.279 111.476 240.755 111.244C240.231 111.011 239.664 110.891 239.09 110.891C238.517 110.891 237.95 111.011 237.425 111.244C236.901 111.476 236.432 111.817 236.047 112.242C233.925 114.505 232.01 117.498 230.335 120.681C225.377 130.254 222.812 140.889 222.859 151.674V263.996H255.1V151.209C255.141 140.72 252.7 130.371 247.978 121.009C245.741 116.634 243.703 113.911 242.134 112.242Z" fill="#141A29"/>
<path d="M149.683 112.242C150.068 111.817 150.537 111.476 151.062 111.244C151.586 111.011 152.153 110.891 152.726 110.891C153.3 110.891 153.867 111.011 154.391 111.244C154.915 111.476 155.385 111.817 155.77 112.242C157.892 114.505 159.806 117.498 161.482 120.681C166.44 130.254 169.005 140.889 168.957 151.674V263.996H136.708V151.209C136.667 140.72 139.108 130.371 143.83 121.009C146.062 116.634 148.1 113.911 149.683 112.242Z" fill="#141A29"/>
<path d="M136.889 153.605L144.537 153.641V163.089H136.889V153.605Z" fill="#D3D3D3"/>
<path d="M161.296 153.605L168.944 153.641V163.089H161.296V153.605Z" fill="#D3D3D3"/>
<path d="M222.855 153.605L230.508 153.641V163.089H222.855V153.605Z" fill="#D3D3D3"/>
<path d="M247.262 153.605L254.914 153.641V163.089H247.262V153.605Z" fill="#D3D3D3"/>
<g opacity="0.1">
<path opacity="0.1" d="M161.468 120.536C159.797 117.353 157.879 114.36 155.757 112.097C155.157 111.434 154.357 110.985 153.479 110.82C152.601 110.654 151.693 110.781 150.894 111.181C151.354 111.411 151.771 111.721 152.123 112.097C154.245 114.36 156.159 117.353 157.834 120.536C162.792 130.109 165.358 140.744 165.31 151.529V263.842H168.953V151.542C169 140.752 166.431 130.113 161.468 120.536Z" fill="black"/>
</g>
<g opacity="0.1">
<path opacity="0.1" d="M233.235 120.845C234.906 117.662 236.825 114.669 238.947 112.406C239.344 111.978 239.824 111.635 240.357 111.397C239.569 111.051 238.692 110.963 237.851 111.144C237.01 111.325 236.247 111.767 235.671 112.406C233.549 114.669 231.635 117.662 229.959 120.845C225.001 130.418 222.436 141.054 222.484 151.838V264.151H225.764V151.856C225.712 141.066 228.276 130.424 233.235 120.845Z" fill="black"/>
</g>
<path d="M158.015 273.268H147.817V300.993H158.015V273.268Z" fill="url(#paint1_linear_1_644)"/>
<path d="M191.162 273.268H180.964V300.993H191.162V273.268Z" fill="url(#paint2_linear_1_644)"/>
<path d="M211.927 273.268H201.728V300.993H211.927V273.268Z" fill="url(#paint3_linear_1_644)"/>
<path d="M245.441 273.268H235.242V300.993H245.441V273.268Z" fill="url(#paint4_linear_1_644)"/>
<path d="M199.947 24.1786C199.414 23.5444 198.749 23.0345 197.999 22.6847C197.248 22.3349 196.431 22.1537 195.603 22.1537C194.776 22.1537 193.958 22.3349 193.208 22.6847C192.457 23.0345 191.793 23.5444 191.26 24.1786C188.232 27.5701 185.513 32.0552 183.108 36.8281C176.035 50.9697 172.436 67.0195 172.436 83.2952V263.536H218.452V82.5691C218.452 66.7539 215.017 51.1335 208.284 37.3151C205.097 30.758 202.188 26.6846 199.947 24.1786Z" fill="#141A29"/>
<path d="M202.268 44.1996H187.984C185.299 44.1996 183.121 46.3801 183.121 49.0699V50.3494C183.121 53.0392 185.299 55.2197 187.984 55.2197H202.268C204.953 55.2197 207.13 53.0392 207.13 50.3494V49.0699C207.13 46.3801 204.953 44.1996 202.268 44.1996Z" fill="#E8E8E8"/>
<g opacity="0.7">
<path opacity="0.7" d="M302.641 297.965C301.131 288.847 296.245 280.633 288.959 274.961C281.672 269.29 272.518 266.576 263.323 267.362C254.128 268.148 245.566 272.376 239.344 279.202C233.122 286.028 229.697 294.952 229.751 304.195C229.751 304.376 229.751 304.553 229.751 304.735C228.394 304.941 227.051 305.229 225.728 305.598C224.035 298.844 220.286 292.784 215.002 288.257C209.718 283.731 203.159 280.962 196.234 280.334C189.309 279.706 182.36 281.25 176.35 284.753C170.34 288.255 165.565 293.542 162.688 299.882C159.723 298.736 156.608 298.024 153.44 297.766C152.935 294.893 152.087 292.091 150.916 289.42C150.366 280.992 146.664 273.083 140.548 267.268C134.432 261.454 126.353 258.162 117.921 258.051C109.49 257.939 101.326 261.015 95.0586 266.665C88.7914 272.315 84.8816 280.124 84.1092 288.534C82.3734 292.216 81.2647 296.162 80.829 300.21C73.1552 303.407 66.9399 309.344 63.3878 316.87C59.8357 324.396 59.1997 332.975 61.6031 340.943H330.2C331.6 336.295 331.977 331.399 331.306 326.591C330.635 321.782 328.93 317.177 326.311 313.092C323.692 309.007 320.219 305.54 316.133 302.928C312.046 300.317 307.443 298.623 302.641 297.965Z" fill="url(#paint5_linear_1_644)"/>
</g>
<path d="M120.559 324.177C138.341 324.177 152.755 309.74 152.755 291.931C152.755 274.122 138.341 259.685 120.559 259.685C102.777 259.685 88.3625 274.122 88.3625 291.931C88.3625 309.74 102.777 324.177 120.559 324.177Z" fill="url(#paint6_linear_1_644)"/>
<path d="M120.399 339.331C139.87 339.331 155.655 323.523 155.655 304.022C155.655 284.521 139.87 268.712 120.399 268.712C100.928 268.712 85.1438 284.521 85.1438 304.022C85.1438 323.523 100.928 339.331 120.399 339.331Z" fill="url(#paint7_linear_1_644)"/>
<path d="M263.677 339.331C283.148 339.331 298.932 323.523 298.932 304.022C298.932 284.521 283.148 268.712 263.677 268.712C244.205 268.712 228.421 284.521 228.421 304.022C228.421 323.523 244.205 339.331 263.677 339.331Z" fill="url(#paint8_linear_1_644)"/>
<path d="M261.903 339.331C279.685 339.331 294.1 324.894 294.1 307.085C294.1 289.277 279.685 274.84 261.903 274.84C244.122 274.84 229.707 289.277 229.707 307.085C229.707 324.894 244.122 339.331 261.903 339.331Z" fill="url(#paint9_linear_1_644)"/>
<path d="M225.52 313.214C225.526 318.313 224.321 323.341 222.006 327.882C219.691 332.424 216.332 336.35 212.205 339.336H174.439C169.968 336.101 166.403 331.77 164.083 326.758C161.764 321.746 160.768 316.222 161.192 310.715C161.615 305.207 163.444 299.901 166.502 295.304C169.56 290.707 173.746 286.974 178.658 284.461C183.57 281.949 189.044 280.742 194.555 280.957C200.066 281.171 205.43 282.799 210.133 285.684C214.836 288.57 218.72 292.617 221.414 297.437C224.107 302.258 225.52 307.69 225.516 313.214H225.52Z" fill="url(#paint10_linear_1_644)"/>
<path d="M265.449 336.432C265.449 337.397 265.406 338.352 265.321 339.296C265.324 339.309 265.324 339.323 265.321 339.336H201.185C201.096 338.38 201.052 337.41 201.052 336.436C201.047 328.72 203.807 321.258 208.83 315.408C213.854 309.558 220.807 305.707 228.425 304.558C230.017 304.318 231.625 304.197 233.235 304.195C234.057 304.195 234.875 304.226 235.684 304.283C241.455 304.725 247 306.716 251.738 310.046C256.475 313.375 260.23 317.922 262.607 323.207C262.739 323.499 262.867 323.796 262.987 324.092C264.613 328.002 265.45 332.196 265.449 336.432Z" fill="url(#paint11_linear_1_644)"/>
<path d="M326.301 329.98C326.304 333.148 325.839 336.3 324.921 339.331H263.296C261.806 334.373 261.522 329.129 262.469 324.039C262.522 323.76 262.575 323.476 262.637 323.202C264.188 315.993 268.159 309.533 273.888 304.9C279.617 300.267 286.758 297.739 294.122 297.739C295.134 297.739 296.129 297.783 297.115 297.881C297.557 297.916 297.999 297.969 298.441 298.027C306.158 299.078 313.232 302.895 318.355 308.77C323.477 314.645 326.3 322.181 326.301 329.98Z" fill="url(#paint12_linear_1_644)"/>
<path d="M128.521 339.337C128.627 339 128.719 338.664 128.812 338.323C130.278 332.833 130.27 327.052 128.789 321.566C127.308 316.08 124.407 311.083 120.378 307.081C116.35 303.078 111.338 300.212 105.849 298.772C100.36 297.333 94.5882 297.371 89.1183 298.882C87.8375 299.234 86.5808 299.669 85.3562 300.184C77.9826 303.256 72.0107 308.961 68.5982 316.193C65.1856 323.424 64.5756 331.667 66.8863 339.323H128.521V339.337Z" fill="url(#paint13_linear_1_644)"/>
<g opacity="0.7">
<path opacity="0.7" d="M314.064 273.016C317.326 273.016 319.97 270.368 319.97 267.101C319.97 263.834 317.326 261.186 314.064 261.186C310.802 261.186 308.158 263.834 308.158 267.101C308.158 270.368 310.802 273.016 314.064 273.016Z" fill="url(#paint14_linear_1_644)"/>
</g>
<path d="M314.064 272.582C317.087 272.582 319.537 270.127 319.537 267.1C319.537 264.073 317.087 261.619 314.064 261.619C311.041 261.619 308.591 264.073 308.591 267.1C308.591 270.127 311.041 272.582 314.064 272.582Z" fill="url(#paint15_linear_1_644)"/>
<g opacity="0.7">
<path opacity="0.7" d="M341.11 330.626C344.668 330.626 347.552 327.738 347.552 324.175C347.552 320.613 344.668 317.724 341.11 317.724C337.553 317.724 334.669 320.613 334.669 324.175C334.669 327.738 337.553 330.626 341.11 330.626Z" fill="url(#paint16_linear_1_644)"/>
</g>
<path d="M341.11 330.304C344.489 330.304 347.229 327.56 347.229 324.176C347.229 320.792 344.489 318.048 341.11 318.048C337.731 318.048 334.992 320.792 334.992 324.176C334.992 327.56 337.731 330.304 341.11 330.304Z" fill="url(#paint17_linear_1_644)"/>
<g opacity="0.7">
<path opacity="0.7" d="M65.5023 294.503C69.4112 294.503 72.58 291.33 72.58 287.415C72.58 283.5 69.4112 280.326 65.5023 280.326C61.5934 280.326 58.4247 283.5 58.4247 287.415C58.4247 291.33 61.5934 294.503 65.5023 294.503Z" fill="url(#paint18_linear_1_644)"/>
</g>
<path d="M65.5023 294.183C69.2353 294.183 72.2616 291.153 72.2616 287.414C72.2616 283.675 69.2353 280.644 65.5023 280.644C61.7692 280.644 58.7429 283.675 58.7429 287.414C58.7429 291.153 61.7692 294.183 65.5023 294.183Z" fill="url(#paint19_linear_1_644)"/>
<g opacity="0.4">
<path opacity="0.4" d="M332.141 7.73542C330.572 5.65917 328.606 3.91631 326.358 2.60832C323.779 1.12409 320.895 0.253096 317.926 0.0625359C314.958 -0.128024 311.986 0.366952 309.239 1.50927C306.492 2.65158 304.044 4.4107 302.083 6.65087C300.123 8.89104 298.702 11.5524 297.932 14.4295C297.161 17.3067 297.06 20.3227 297.638 23.2449C298.216 26.1671 299.456 28.9173 301.263 31.2833C303.07 33.6493 305.396 35.5679 308.061 36.891C310.726 38.214 313.658 38.9063 316.633 38.9142C317.044 38.9142 317.455 38.9142 317.862 38.8743C321.361 38.6533 324.735 37.487 327.626 35.4995C330.517 33.5119 332.816 30.7773 334.279 27.5861C335.743 24.3949 336.316 20.8662 335.938 17.375C335.56 13.8837 334.245 10.5603 332.132 7.75756L332.141 7.73542Z" fill="url(#paint20_linear_1_644)"/>
</g>
<path opacity="0.2" d="M334.992 19.446C334.993 24.119 333.216 28.6167 330.023 32.0242C326.83 35.4317 322.461 37.4932 317.804 37.7893C317.42 37.8158 317.031 37.8291 316.642 37.8291C313.828 37.8275 311.052 37.1777 308.529 35.9301C306.006 34.6825 303.803 32.8705 302.091 30.6342C300.378 28.3978 299.203 25.797 298.654 23.0329C298.106 20.2688 298.199 17.4153 298.927 14.6932C299.656 11.9711 300.999 9.45313 302.854 7.33408C304.71 5.21504 307.026 3.55164 309.626 2.47249C312.225 1.39334 315.037 0.927339 317.845 1.11053C320.653 1.29371 323.382 2.12117 325.819 3.52894C327.945 4.76551 329.804 6.4136 331.288 8.3771C333.697 11.5622 334.998 15.4501 334.992 19.446Z" fill="#20212C"/>
<path opacity="0.05" d="M312.123 7.78779C311.175 8.19738 310.26 8.67995 309.387 9.23117C308.804 9.5552 308.303 10.0098 307.924 10.5594C307.738 10.8351 307.637 11.1584 307.63 11.4906C307.624 11.8228 307.714 12.1498 307.888 12.4323C308.33 13.0433 309.214 13.1407 309.953 13.1805C310.631 13.3249 311.336 13.2861 311.994 13.0683C312.653 12.8505 313.242 12.4614 313.702 11.9408L315.28 10.5063C315.828 10.0104 316.429 9.32415 316.19 8.6246C316.009 8.08887 315.408 7.82764 314.864 7.73909C313.508 7.47172 312.1 7.71951 310.916 8.43421" fill="#F55F44"/>
<path opacity="0.05" d="M305.532 27.6676C306.064 27.6676 306.495 27.2355 306.495 26.7024C306.495 26.1693 306.064 25.7372 305.532 25.7372C304.999 25.7372 304.568 26.1693 304.568 26.7024C304.568 27.2355 304.999 27.6676 305.532 27.6676Z" fill="#F55F44"/>
<path opacity="0.05" d="M325.174 24.1211C327.129 24.1211 328.715 22.5333 328.715 20.5747C328.715 18.616 327.129 17.0282 325.174 17.0282C323.218 17.0282 321.633 18.616 321.633 20.5747C321.633 22.5333 323.218 24.1211 325.174 24.1211Z" fill="#F55F44"/>
<path opacity="0.05" d="M331.292 8.37225C331.278 9.29892 330.999 10.2021 330.487 10.9743C329.975 11.7466 329.253 12.3555 328.406 12.7287C327.559 13.1018 326.623 13.2236 325.709 13.0794C324.795 12.9352 323.941 12.5312 323.25 11.9153C322.558 11.2994 322.058 10.4977 321.808 9.60531C321.558 8.71294 321.57 7.7675 321.841 6.88139C322.112 5.99527 322.631 5.20574 323.337 4.60667C324.043 4.00759 324.906 3.62416 325.823 3.50195C327.951 4.74502 329.811 6.40076 331.292 8.37225Z" fill="#F55F44"/>
<path opacity="0.05" d="M331.645 30.0325C330.067 32.2822 328.003 34.1475 325.607 35.4903C323.211 36.8331 320.544 37.6189 317.804 37.7895C317.782 37.5372 317.769 37.2804 317.769 37.0236C317.769 35.4103 318.217 33.8289 319.063 32.4558C319.908 31.0826 321.118 29.9716 322.557 29.2466C323.996 28.5217 325.607 28.2113 327.212 28.35C328.817 28.4888 330.352 29.0712 331.645 30.0325Z" fill="#F55F44"/>
<path opacity="0.25" d="M319.537 154.885C320.782 154.885 321.792 153.874 321.792 152.627C321.792 151.38 320.782 150.369 319.537 150.369C318.292 150.369 317.282 151.38 317.282 152.627C317.282 153.874 318.292 154.885 319.537 154.885Z" fill="#535461"/>
<path opacity="0.25" d="M18.9254 214.214C20.1705 214.214 21.18 213.203 21.18 211.956C21.18 210.709 20.1705 209.698 18.9254 209.698C17.6802 209.698 16.6708 210.709 16.6708 211.956C16.6708 213.203 17.6802 214.214 18.9254 214.214Z" fill="#535461"/>
<path opacity="0.25" d="M406.626 227.053C407.871 227.053 408.88 226.042 408.88 224.795C408.88 223.548 407.871 222.537 406.626 222.537C405.381 222.537 404.371 223.548 404.371 224.795C404.371 226.042 405.381 227.053 406.626 227.053Z" fill="#535461"/>
<path opacity="0.25" d="M127.641 120.057C128.886 120.057 129.895 119.046 129.895 117.799C129.895 116.552 128.886 115.541 127.641 115.541C126.396 115.541 125.386 116.552 125.386 117.799C125.386 119.046 126.396 120.057 127.641 120.057Z" fill="#535461"/>
<path opacity="0.25" d="M120.236 68.1402C121.481 68.1402 122.49 67.1293 122.49 65.8822C122.49 64.6351 121.481 63.6241 120.236 63.6241C118.991 63.6241 117.981 64.6351 117.981 65.8822C117.981 67.1293 118.991 68.1402 120.236 68.1402Z" fill="#535461"/>
<path opacity="0.25" d="M56.4842 171.005C57.7294 171.005 58.7388 169.994 58.7388 168.747C58.7388 167.5 57.7294 166.489 56.4842 166.489C55.239 166.489 54.2296 167.5 54.2296 168.747C54.2296 169.994 55.239 171.005 56.4842 171.005Z" fill="#535461"/>
<path opacity="0.25" d="M375.402 171.399H373.395V169.393H372.577V171.399H370.57V172.223H372.577V174.228H373.395V172.223H375.402V171.399Z" fill="#535461"/>
<path opacity="0.25" d="M409 101.887H406.993V99.8815H406.175V101.887H404.168V102.711H406.175V104.716H406.993V102.711H409V101.887Z" fill="#535461"/>
<path opacity="0.25" d="M265.931 63.0528H263.924V61.0427H263.106V63.0528H261.099V63.8719H263.106V65.882H263.924V63.8719H265.931V63.0528Z" fill="#535461"/>
<path opacity="0.25" d="M353.506 160.113H351.499V158.107H350.682V160.113H348.679V160.937H350.682V162.942H351.499V160.937H353.506V160.113Z" fill="#535461"/>
<path opacity="0.25" d="M280.095 226.863H278.092V224.857H277.275V226.863H275.267V227.686H277.275V229.692H278.092V227.686H280.095V226.863Z" fill="#535461"/>
<path opacity="0.25" d="M74.6799 89.171H72.6729V87.1653H71.855V89.171H69.848V89.99H71.855V92.0001H72.6729V89.99H74.6799V89.171Z" fill="#535461"/>
<path opacity="0.25" d="M4.83189 115.293H2.82487V113.287H2.00703V115.293H0V116.112H2.00703V118.122H2.82487V116.112H4.83189V115.293Z" fill="#535461"/>
<path opacity="0.25" d="M102.367 197.522H100.36V195.512H99.5422V197.522H97.5396V198.341H99.5422V200.351H100.36V198.341H102.367V197.522Z" fill="#535461"/>
<path d="M341.11 330.304C344.489 330.304 347.229 327.56 347.229 324.176C347.229 320.792 344.489 318.048 341.11 318.048C337.731 318.048 334.992 320.792 334.992 324.176C334.992 327.56 337.731 330.304 341.11 330.304Z" fill="url(#paint21_linear_1_644)"/>
<g opacity="0.4">
<path opacity="0.4" d="M118.901 154.22C118.154 153.23 117.218 152.399 116.147 151.776C114.919 151.06 113.542 150.637 112.124 150.54C110.706 150.443 109.285 150.675 107.971 151.217C106.657 151.759 105.486 152.597 104.548 153.666C103.609 154.735 102.93 156.007 102.562 157.381C102.194 158.756 102.147 160.197 102.425 161.593C102.703 162.989 103.298 164.302 104.165 165.43C105.032 166.558 106.147 167.471 107.423 168.097C108.699 168.724 110.102 169.048 111.523 169.043C111.717 169.043 111.916 169.043 112.106 169.043C113.772 168.937 115.378 168.38 116.754 167.433C118.129 166.487 119.224 165.184 119.92 163.665C120.617 162.146 120.89 160.466 120.71 158.804C120.531 157.142 119.906 155.559 118.901 154.224V154.22Z" fill="url(#paint22_linear_1_644)"/>
</g>
<path opacity="0.2" d="M120.258 159.799C120.258 162.025 119.411 164.167 117.89 165.79C116.369 167.412 114.288 168.394 112.071 168.535C111.889 168.535 111.704 168.535 111.518 168.535C110.178 168.533 108.856 168.223 107.655 167.629C106.454 167.034 105.405 166.171 104.59 165.106C103.775 164.041 103.215 162.803 102.954 161.486C102.693 160.17 102.738 158.811 103.085 157.515C103.432 156.219 104.072 155.02 104.955 154.011C105.838 153.002 106.941 152.21 108.179 151.696C109.417 151.182 110.756 150.96 112.093 151.046C113.43 151.133 114.729 151.527 115.89 152.197C116.902 152.786 117.787 153.57 118.494 154.504C119.646 156.027 120.266 157.888 120.258 159.799Z" fill="#20212C"/>
<path opacity="0.1" d="M109.365 154.247C108.906 154.441 108.462 154.67 108.039 154.933C107.761 155.085 107.522 155.299 107.34 155.557C107.256 155.69 107.211 155.843 107.211 156C107.211 156.157 107.256 156.311 107.34 156.443C107.469 156.569 107.623 156.666 107.792 156.727C107.962 156.789 108.142 156.812 108.322 156.797C108.642 156.863 108.974 156.843 109.285 156.74C109.595 156.636 109.873 156.453 110.09 156.208L110.842 155.527C111.102 155.287 111.39 154.964 111.284 154.641C111.224 154.519 111.135 154.414 111.023 154.336C110.912 154.259 110.782 154.211 110.647 154.198C110.001 154.072 109.332 154.19 108.768 154.53" fill="#F55F44"/>
<path opacity="0.1" d="M106.226 163.714C106.48 163.714 106.686 163.507 106.686 163.253C106.686 162.999 106.48 162.793 106.226 162.793C105.972 162.793 105.767 162.999 105.767 163.253C105.767 163.507 105.972 163.714 106.226 163.714Z" fill="#F55F44"/>
<path opacity="0.1" d="M115.581 162.027C116.513 162.027 117.27 161.269 117.27 160.335C117.27 159.401 116.513 158.644 115.581 158.644C114.648 158.644 113.892 159.401 113.892 160.335C113.892 161.269 114.648 162.027 115.581 162.027Z" fill="#F55F44"/>
<path opacity="0.1" d="M118.494 154.544C118.488 154.985 118.356 155.415 118.114 155.783C117.871 156.151 117.528 156.441 117.125 156.62C116.722 156.798 116.277 156.857 115.842 156.789C115.407 156.721 115 156.53 114.67 156.237C114.341 155.945 114.102 155.564 113.983 155.139C113.863 154.715 113.868 154.265 113.996 153.843C114.125 153.421 114.372 153.045 114.707 152.759C115.043 152.474 115.453 152.291 115.89 152.232C116.902 152.822 117.787 153.608 118.494 154.544Z" fill="#F55F44"/>
<path opacity="0.1" d="M118.667 164.842C117.915 165.914 116.932 166.803 115.792 167.443C114.651 168.083 113.38 168.458 112.075 168.539C112.075 168.42 112.075 168.296 112.075 168.172C112.073 167.4 112.285 166.643 112.689 165.985C113.093 165.328 113.672 164.796 114.361 164.45C115.05 164.104 115.822 163.957 116.589 164.027C117.357 164.096 118.09 164.379 118.706 164.842H118.667Z" fill="#F55F44"/>
<g opacity="0.1">
<path opacity="0.1" d="M218.205 89.4585H172.671V91.2295H218.205V89.4585Z" fill="black"/>
</g>
</g>
<defs>
<linearGradient id="paint0_linear_1_644" x1="195.902" y1="307.294" x2="195.902" y2="21.2749" gradientUnits="userSpaceOnUse">
<stop stop-color="#808080" stop-opacity="0.25"/>
<stop offset="0.54" stop-color="#808080" stop-opacity="0.12"/>
<stop offset="1" stop-color="#808080" stop-opacity="0.1"/>
</linearGradient>
<linearGradient id="paint1_linear_1_644" x1="152.914" y1="273.268" x2="152.914" y2="300.998" gradientUnits="userSpaceOnUse">
<stop stop-color="#E0E0E0"/>
<stop offset="0.31" stop-color="#FCCC63"/>
<stop offset="0.77" stop-color="#F55F44"/>
</linearGradient>
<linearGradient id="paint2_linear_1_644" x1="4473.49" y1="17385.3" x2="4473.49" y2="19121.7" gradientUnits="userSpaceOnUse">
<stop stop-color="#E0E0E0"/>
<stop offset="0.31" stop-color="#FCCC63"/>
<stop offset="0.77" stop-color="#F55F44"/>
</linearGradient>
<linearGradient id="paint3_linear_1_644" x1="4973.28" y1="17385.3" x2="4973.28" y2="19121.7" gradientUnits="userSpaceOnUse">
<stop stop-color="#E0E0E0"/>
<stop offset="0.31" stop-color="#FCCC63"/>
<stop offset="0.77" stop-color="#F55F44"/>
</linearGradient>
<linearGradient id="paint4_linear_1_644" x1="5779.97" y1="17385.3" x2="5779.97" y2="19121.7" gradientUnits="userSpaceOnUse">
<stop stop-color="#E0E0E0"/>
<stop offset="0.31" stop-color="#FCCC63"/>
<stop offset="0.77" stop-color="#F55F44"/>
</linearGradient>
<linearGradient id="paint5_linear_1_644" x1="157656" y1="69480" x2="157656" y2="53957" gradientUnits="userSpaceOnUse">
<stop stop-color="#808080" stop-opacity="0.25"/>
<stop offset="0.54" stop-color="#808080" stop-opacity="0.12"/>
<stop offset="1" stop-color="#808080" stop-opacity="0.1"/>
</linearGradient>
<linearGradient id="paint6_linear_1_644" x1="120.559" y1="259.685" x2="120.559" y2="324.177" gradientUnits="userSpaceOnUse">
<stop stop-color="#F2F2F2"/>
<stop offset="0.31" stop-color="#E6E6E6"/>
<stop offset="0.77" stop-color="#CCCCCC"/>
</linearGradient>
<linearGradient id="paint7_linear_1_644" x1="19288.9" y1="43128.3" x2="19288.9" y2="54392.1" gradientUnits="userSpaceOnUse">
<stop stop-color="#F2F2F2"/>
<stop offset="0.31" stop-color="#E6E6E6"/>
<stop offset="0.77" stop-color="#CCCCCC"/>
</linearGradient>
<linearGradient id="paint8_linear_1_644" x1="42284.8" y1="43128.3" x2="42284.8" y2="54392.1" gradientUnits="userSpaceOnUse">
<stop stop-color="#F2F2F2"/>
<stop offset="0.31" stop-color="#E6E6E6"/>
<stop offset="0.77" stop-color="#CCCCCC"/>
</linearGradient>
<linearGradient id="paint9_linear_1_644" x1="38378.6" y1="40308" x2="38378.6" y2="49701.9" gradientUnits="userSpaceOnUse">
<stop stop-color="#F2F2F2"/>
<stop offset="0.31" stop-color="#E6E6E6"/>
<stop offset="0.77" stop-color="#CCCCCC"/>
</linearGradient>
<linearGradient id="paint10_linear_1_644" x1="37186.7" y1="41136.9" x2="37186.7" y2="48836.3" gradientUnits="userSpaceOnUse">
<stop stop-color="#F2F2F2"/>
<stop offset="0.31" stop-color="#E6E6E6"/>
<stop offset="0.77" stop-color="#CCCCCC"/>
</linearGradient>
<linearGradient id="paint11_linear_1_644" x1="43027.1" y1="26729.8" x2="43027.1" y2="29519.7" gradientUnits="userSpaceOnUse">
<stop stop-color="#F2F2F2"/>
<stop offset="0.31" stop-color="#E6E6E6"/>
<stop offset="0.77" stop-color="#CCCCCC"/>
</linearGradient>
<linearGradient id="paint12_linear_1_644" x1="51938.4" y1="30968.4" x2="51938.4" y2="34876.4" gradientUnits="userSpaceOnUse">
<stop stop-color="#F2F2F2"/>
<stop offset="0.31" stop-color="#E6E6E6"/>
<stop offset="0.77" stop-color="#CCCCCC"/>
</linearGradient>
<linearGradient id="paint13_linear_1_644" x1="23146.3" y1="30986.2" x2="23146.3" y2="34896.5" gradientUnits="userSpaceOnUse">
<stop stop-color="#F2F2F2"/>
<stop offset="0.31" stop-color="#E6E6E6"/>
<stop offset="0.77" stop-color="#CCCCCC"/>
</linearGradient>
<linearGradient id="paint14_linear_1_644" x1="8699.95" y1="7556.18" x2="8699.95" y2="7240.07" gradientUnits="userSpaceOnUse">
<stop stop-color="#808080" stop-opacity="0.25"/>
<stop offset="0.54" stop-color="#808080" stop-opacity="0.12"/>
<stop offset="1" stop-color="#808080" stop-opacity="0.1"/>
</linearGradient>
<linearGradient id="paint15_linear_1_644" x1="8084.82" y1="6739.31" x2="8084.82" y2="7010.75" gradientUnits="userSpaceOnUse">
<stop stop-color="#F2F2F2"/>
<stop offset="0.31" stop-color="#E6E6E6"/>
<stop offset="0.77" stop-color="#CCCCCC"/>
</linearGradient>
<linearGradient id="paint16_linear_1_644" x1="10274.6" y1="9952.19" x2="10274.6" y2="9576.36" gradientUnits="userSpaceOnUse">
<stop stop-color="#808080" stop-opacity="0.25"/>
<stop offset="0.54" stop-color="#808080" stop-opacity="0.12"/>
<stop offset="1" stop-color="#808080" stop-opacity="0.1"/>
</linearGradient>
<linearGradient id="paint17_linear_1_644" x1="341.11" y1="318.048" x2="341.11" y2="330.304" gradientUnits="userSpaceOnUse">
<stop stop-color="#F2F2F2"/>
<stop offset="0.31" stop-color="#E0E0E0"/>
<stop offset="0.77" stop-color="#B3B3B3"/>
</linearGradient>
<linearGradient id="paint18_linear_1_644" x1="2155.81" y1="9710.27" x2="2155.81" y2="9256.33" gradientUnits="userSpaceOnUse">
<stop stop-color="#808080" stop-opacity="0.25"/>
<stop offset="0.54" stop-color="#808080" stop-opacity="0.12"/>
<stop offset="1" stop-color="#808080" stop-opacity="0.1"/>
</linearGradient>
<linearGradient id="paint19_linear_1_644" x1="2061.81" y1="8862.75" x2="2061.81" y2="9276.92" gradientUnits="userSpaceOnUse">
<stop stop-color="#F2F2F2"/>
<stop offset="0.31" stop-color="#E6E6E6"/>
<stop offset="0.77" stop-color="#CCCCCC"/>
</linearGradient>
<linearGradient id="paint20_linear_1_644" x1="33405" y1="5942.25" x2="33405" y2="2526.02" gradientUnits="userSpaceOnUse">
<stop stop-color="#808080" stop-opacity="0.25"/>
<stop offset="0.54" stop-color="#808080" stop-opacity="0.12"/>
<stop offset="1" stop-color="#808080" stop-opacity="0.1"/>
</linearGradient>
<linearGradient id="paint21_linear_1_644" x1="9776.91" y1="9121.63" x2="9776.91" y2="9460.86" gradientUnits="userSpaceOnUse">
<stop stop-color="#F2F2F2"/>
<stop offset="0.31" stop-color="#E6E6E6"/>
<stop offset="0.77" stop-color="#CCCCCC"/>
</linearGradient>
<linearGradient id="paint22_linear_1_644" x1="7318.15" y1="8427.24" x2="7318.15" y2="7652.16" gradientUnits="userSpaceOnUse">
<stop stop-color="#808080" stop-opacity="0.25"/>
<stop offset="0.54" stop-color="#808080" stop-opacity="0.12"/>
<stop offset="1" stop-color="#808080" stop-opacity="0.1"/>
</linearGradient>
<clipPath id="clip0_1_644">
<rect width="409" height="340.961" fill="white"/>
</clipPath>
</defs>
</svg>
